<svg width="232" height="68" viewBox="0 0 232 68" fill="none" xmlns="http://www.w3.org/2000/svg">
<path d="M17.2236 33.5166C17.2236 33.1064 17.3604 32.7841 17.6338 32.5498C17.9072 32.3154 18.1514 32.1396 18.3662 32.0224L37.8779 20.5966C38.1904 20.4013 38.5322 20.3037 38.9033 20.3037C39.6064 20.3037 39.958 20.6357 39.958 21.2998C39.958 21.8076 39.6553 22.2373 39.0498 22.5888L19.6553 33.5166L39.0498 44.4443C39.6553 44.7959 39.958 45.2256 39.958 45.7334C39.958 46.0068 39.8604 46.2412 39.665 46.4365C39.4893 46.6318 39.2354 46.7295 38.9033 46.7295C38.5908 46.7295 38.249 46.6318 37.8779 46.4365L18.3662 35.0107C18.1514 34.874 17.9072 34.6884 17.6338 34.4541C17.3604 34.2197 17.2236 33.9072 17.2236 33.5166Z" fill="#D81B60"/>
<path d="M115.971 50.0948C115.385 50.0948 114.887 49.753 114.477 49.0694L97.3379 19.9483C97.1816 19.6749 97.0449 19.421 96.9277 19.1866C96.8301 18.9327 96.7812 18.6885 96.7812 18.4542C96.7812 18.2979 96.8594 18.1026 97.0156 17.8682C97.1719 17.6143 97.416 17.4874 97.748 17.4874C98.0801 17.5264 98.3535 17.6827 98.5684 17.9561C98.8027 18.2296 99.0273 18.5518 99.2422 18.9229L116 47.4581L132.729 18.9229C132.943 18.5518 133.168 18.2296 133.402 17.9561C133.637 17.6827 133.891 17.5264 134.164 17.4874C134.535 17.4874 134.799 17.6046 134.955 17.8389C135.111 18.0733 135.189 18.2979 135.189 18.5128C135.189 18.7276 135.121 18.962 134.984 19.2159C134.867 19.4503 134.73 19.6944 134.574 19.9483L117.494 49.0694C117.104 49.753 116.596 50.0948 115.971 50.0948Z" fill="#D81B60"/>
<path d="M214.776 34.0948C214.776 34.5049 214.64 34.8272 214.366 35.0616C214.093 35.2959 213.849 35.4717 213.634 35.5889L194.122 47.0147C193.81 47.21 193.468 47.3077 193.097 47.3077C192.394 47.3077 192.042 46.9756 192.042 46.3116C192.042 45.8038 192.345 45.3741 192.95 45.0225L212.345 34.0948L192.95 23.167C192.345 22.8155 192.042 22.3858 192.042 21.878C192.042 21.6045 192.14 21.3702 192.335 21.1749C192.511 20.9795 192.765 20.8819 193.097 20.8819C193.409 20.8819 193.751 20.9795 194.122 21.1749L213.634 32.6006C213.849 32.7374 214.093 32.9229 214.366 33.1573C214.64 33.3916 214.776 33.7041 214.776 34.0948Z" fill="#D81B60"/>
</svg>
