<svg width="222" height="99" viewBox="0 0 222 99" fill="none" xmlns="http://www.w3.org/2000/svg">
<g filter="url(#filter0_d_61_291)">
<path d="M56.2637 56.8203C56.0033 56.8203 55.6777 56.7389 55.2871 56.5762L32.6309 45.248C31.8496 44.8574 31.2311 44.4993 30.7754 44.1738C30.3522 43.8158 30.1406 43.2949 30.1406 42.6113C30.1406 41.8952 30.3522 41.3743 30.7754 41.0488C31.2311 40.6908 31.8496 40.3164 32.6309 39.9258L55.2871 28.5977C55.6126 28.4349 55.9382 28.3535 56.2637 28.3535C56.752 28.3535 57.1426 28.5326 57.4355 28.8906C57.7611 29.2487 57.9238 29.6556 57.9238 30.1113C57.9238 30.7949 57.582 31.3158 56.8984 31.6738L35.0723 42.6113L56.8984 53.5C57.582 53.8255 57.9238 54.3626 57.9238 55.1113C57.9238 55.5345 57.7611 55.9251 57.4355 56.2832C57.1426 56.6413 56.752 56.8203 56.2637 56.8203ZM111 66.4883C110.316 66.4883 109.779 66.2604 109.389 65.8047C108.998 65.349 108.705 64.9421 108.51 64.584L89.4668 32.0645C89.1413 31.5436 88.9785 30.974 88.9785 30.3555C88.9785 29.1836 89.5319 28.5977 90.6387 28.5977C91.485 28.5977 92.2012 29.1022 92.7871 30.1113L111 62.4355L129.213 30.1113C129.799 29.1022 130.515 28.5977 131.361 28.5977C131.817 28.5977 132.208 28.7604 132.533 29.0859C132.859 29.3789 133.021 29.8021 133.021 30.3555C133.021 30.8763 132.859 31.446 132.533 32.0645L113.49 64.584C113.262 64.9421 112.953 65.349 112.562 65.8047C112.172 66.2604 111.651 66.4883 111 66.4883ZM165.785 56.8203C165.297 56.8203 164.89 56.6413 164.564 56.2832C164.271 55.9251 164.125 55.5345 164.125 55.1113C164.125 54.3626 164.467 53.8255 165.15 53.5L186.977 42.6113L165.15 31.6738C164.467 31.3158 164.125 30.7949 164.125 30.1113C164.125 29.6556 164.271 29.2487 164.564 28.8906C164.89 28.5326 165.297 28.3535 165.785 28.3535C166.111 28.3535 166.436 28.4349 166.762 28.5977L189.418 39.9258C190.199 40.3164 190.801 40.6908 191.225 41.0488C191.68 41.3743 191.908 41.8952 191.908 42.6113C191.908 43.2949 191.68 43.8158 191.225 44.1738C190.801 44.4993 190.199 44.8574 189.418 45.248L166.762 56.5762C166.371 56.7389 166.046 56.8203 165.785 56.8203Z" fill="#D81B60"/>
</g>
<defs>
<filter id="filter0_d_61_291" x="0.140625" y="0.353516" width="221.768" height="98.1348" filterUnits="userSpaceOnUse" color-interpolation-filters="sRGB">
<feFlood flood-opacity="0" result="BackgroundImageFix"/>
<feColorMatrix in="SourceAlpha" type="matrix" values="0 0 0 0 0 0 0 0 0 0 0 0 0 0 0 0 0 0 127 0" result="hardAlpha"/>
<feOffset dy="2"/>
<feGaussianBlur stdDeviation="15"/>
<feComposite in2="hardAlpha" operator="out"/>
<feColorMatrix type="matrix" values="0 0 0 0 1 0 0 0 0 1 0 0 0 0 1 0 0 0 0.75 0"/>
<feBlend mode="normal" in2="BackgroundImageFix" result="effect1_dropShadow_61_291"/>
<feBlend mode="normal" in="SourceGraphic" in2="effect1_dropShadow_61_291" result="shape"/>
</filter>
</defs>
</svg>
