<svg width="98" height="24" viewBox="0 0 98 24" fill="none" xmlns="http://www.w3.org/2000/svg">
<path d="M16.0723 17.4922C15.916 17.4922 15.7207 17.4434 15.4863 17.3457L1.89258 10.5488C1.42383 10.3145 1.05273 10.0996 0.779297 9.9043C0.525391 9.68945 0.398438 9.37695 0.398438 8.9668C0.398438 8.53711 0.525391 8.22461 0.779297 8.0293C1.05273 7.81445 1.42383 7.58984 1.89258 7.35547L15.4863 0.558594C15.6816 0.460938 15.877 0.412109 16.0723 0.412109C16.3652 0.412109 16.5996 0.519531 16.7754 0.734375C16.9707 0.949219 17.0684 1.19336 17.0684 1.4668C17.0684 1.87695 16.8633 2.18945 16.4531 2.4043L3.35742 8.9668L16.4531 15.5C16.8633 15.6953 17.0684 16.0176 17.0684 16.4668C17.0684 16.7207 16.9707 16.9551 16.7754 17.1699C16.5996 17.3848 16.3652 17.4922 16.0723 17.4922ZM48.9141 23.293C48.5039 23.293 48.1816 23.1562 47.9473 22.8828C47.7129 22.6094 47.5371 22.3652 47.4199 22.1504L35.9941 2.63867C35.7988 2.32617 35.7012 1.98438 35.7012 1.61328C35.7012 0.910156 36.0332 0.558594 36.6973 0.558594C37.2051 0.558594 37.6348 0.861328 37.9863 1.4668L48.9141 20.8613L59.8418 1.4668C60.1934 0.861328 60.623 0.558594 61.1309 0.558594C61.4043 0.558594 61.6387 0.65625 61.834 0.851562C62.0293 1.02734 62.127 1.28125 62.127 1.61328C62.127 1.92578 62.0293 2.26758 61.834 2.63867L50.4082 22.1504C50.2715 22.3652 50.0859 22.6094 49.8516 22.8828C49.6172 23.1562 49.3047 23.293 48.9141 23.293ZM81.7852 17.4922C81.4922 17.4922 81.248 17.3848 81.0527 17.1699C80.877 16.9551 80.7891 16.7207 80.7891 16.4668C80.7891 16.0176 80.9941 15.6953 81.4043 15.5L94.5 8.9668L81.4043 2.4043C80.9941 2.18945 80.7891 1.87695 80.7891 1.4668C80.7891 1.19336 80.877 0.949219 81.0527 0.734375C81.248 0.519531 81.4922 0.412109 81.7852 0.412109C81.9805 0.412109 82.1758 0.460938 82.3711 0.558594L95.9648 7.35547C96.4336 7.58984 96.7949 7.81445 97.0488 8.0293C97.3223 8.22461 97.459 8.53711 97.459 8.9668C97.459 9.37695 97.3223 9.68945 97.0488 9.9043C96.7949 10.0996 96.4336 10.3145 95.9648 10.5488L82.3711 17.3457C82.1367 17.4434 81.9414 17.4922 81.7852 17.4922Z" fill="#D81B60"/>
</svg>
